<mxfile host="app.diagrams.net" modified="2024-04-28T08:30:21.624Z" agent="Mozilla/5.0 (Windows NT 10.0; Win64; x64) AppleWebKit/537.36 (KHTML, like Gecko) Chrome/124.0.0.0 Safari/537.36 Edg/124.0.0.0" version="24.3.0" etag="R1BtW1NoU0YWclY-wG0i" type="device">
  <diagram id="shItKNalWt-2ZfvphIy8" name="第 1 页">
    <mxGraphModel dx="2132" dy="1220" grid="1" gridSize="10" guides="1" tooltips="1" connect="1" arrows="1" fold="1" page="1" pageScale="1" pageWidth="827" pageHeight="1169" math="0" shadow="0">
      <root>
        <mxCell id="0" />
        <mxCell id="1" parent="0" />
        <mxCell id="_l4OYy0YUP2VVIJkTKgx-25" style="edgeStyle=orthogonalEdgeStyle;rounded=0;orthogonalLoop=1;jettySize=auto;html=1;exitX=0.5;exitY=1;exitDx=0;exitDy=0;" edge="1" parent="1" source="_l4OYy0YUP2VVIJkTKgx-6" target="_l4OYy0YUP2VVIJkTKgx-23">
          <mxGeometry relative="1" as="geometry" />
        </mxCell>
        <mxCell id="_l4OYy0YUP2VVIJkTKgx-6" value="&lt;font style=&quot;font-size: 16px;&quot;&gt;input&lt;/font&gt;" style="rounded=1;whiteSpace=wrap;html=1;fillColor=#f8cecc;strokeColor=#b85450;" vertex="1" parent="1">
          <mxGeometry x="150" y="20" width="120" height="60" as="geometry" />
        </mxCell>
        <mxCell id="_l4OYy0YUP2VVIJkTKgx-28" style="edgeStyle=orthogonalEdgeStyle;rounded=0;orthogonalLoop=1;jettySize=auto;html=1;exitX=0.5;exitY=1;exitDx=0;exitDy=0;entryX=0.5;entryY=0;entryDx=0;entryDy=0;" edge="1" parent="1" source="_l4OYy0YUP2VVIJkTKgx-8" target="_l4OYy0YUP2VVIJkTKgx-27">
          <mxGeometry relative="1" as="geometry" />
        </mxCell>
        <mxCell id="_l4OYy0YUP2VVIJkTKgx-8" value="&lt;span style=&quot;font-size: 16px;&quot;&gt;CBS&lt;/span&gt;" style="rounded=1;whiteSpace=wrap;html=1;fillColor=#dae8fc;strokeColor=#6c8ebf;" vertex="1" parent="1">
          <mxGeometry x="150" y="220" width="120" height="60" as="geometry" />
        </mxCell>
        <mxCell id="_l4OYy0YUP2VVIJkTKgx-75" style="edgeStyle=orthogonalEdgeStyle;rounded=0;orthogonalLoop=1;jettySize=auto;html=1;exitX=0.5;exitY=0;exitDx=0;exitDy=0;entryX=0.5;entryY=1;entryDx=0;entryDy=0;" edge="1" parent="1" source="_l4OYy0YUP2VVIJkTKgx-16" target="_l4OYy0YUP2VVIJkTKgx-48">
          <mxGeometry relative="1" as="geometry">
            <mxPoint x="400" y="920" as="targetPoint" />
          </mxGeometry>
        </mxCell>
        <mxCell id="_l4OYy0YUP2VVIJkTKgx-16" value="&lt;span style=&quot;font-size: 16px;&quot;&gt;上采样&lt;/span&gt;" style="rounded=1;whiteSpace=wrap;html=1;fillColor=#fff2cc;strokeColor=#d6b656;" vertex="1" parent="1">
          <mxGeometry x="354" y="960" width="120" height="60" as="geometry" />
        </mxCell>
        <mxCell id="_l4OYy0YUP2VVIJkTKgx-21" value="&lt;font style=&quot;font-size: 16px;&quot;&gt;output&lt;/font&gt;" style="rounded=1;whiteSpace=wrap;html=1;fillColor=#f8cecc;strokeColor=#b85450;" vertex="1" parent="1">
          <mxGeometry x="1740" y="850" width="120" height="60" as="geometry" />
        </mxCell>
        <mxCell id="_l4OYy0YUP2VVIJkTKgx-26" style="edgeStyle=orthogonalEdgeStyle;rounded=0;orthogonalLoop=1;jettySize=auto;html=1;exitX=0.5;exitY=1;exitDx=0;exitDy=0;" edge="1" parent="1" source="_l4OYy0YUP2VVIJkTKgx-23" target="_l4OYy0YUP2VVIJkTKgx-8">
          <mxGeometry relative="1" as="geometry" />
        </mxCell>
        <mxCell id="_l4OYy0YUP2VVIJkTKgx-23" value="&lt;span style=&quot;font-size: 16px;&quot;&gt;CBS&lt;/span&gt;" style="rounded=1;whiteSpace=wrap;html=1;fillColor=#dae8fc;strokeColor=#6c8ebf;" vertex="1" parent="1">
          <mxGeometry x="150" y="120" width="120" height="60" as="geometry" />
        </mxCell>
        <mxCell id="_l4OYy0YUP2VVIJkTKgx-30" style="edgeStyle=orthogonalEdgeStyle;rounded=0;orthogonalLoop=1;jettySize=auto;html=1;exitX=0.5;exitY=1;exitDx=0;exitDy=0;entryX=0.5;entryY=0;entryDx=0;entryDy=0;" edge="1" parent="1" source="_l4OYy0YUP2VVIJkTKgx-27" target="_l4OYy0YUP2VVIJkTKgx-29">
          <mxGeometry relative="1" as="geometry" />
        </mxCell>
        <mxCell id="_l4OYy0YUP2VVIJkTKgx-27" value="&lt;span style=&quot;font-size: 16px;&quot;&gt;C3*n&lt;/span&gt;" style="rounded=1;whiteSpace=wrap;html=1;fillColor=#dae8fc;strokeColor=#6c8ebf;" vertex="1" parent="1">
          <mxGeometry x="150" y="320" width="120" height="60" as="geometry" />
        </mxCell>
        <mxCell id="_l4OYy0YUP2VVIJkTKgx-32" style="edgeStyle=orthogonalEdgeStyle;rounded=0;orthogonalLoop=1;jettySize=auto;html=1;exitX=0.5;exitY=1;exitDx=0;exitDy=0;" edge="1" parent="1" source="_l4OYy0YUP2VVIJkTKgx-29" target="_l4OYy0YUP2VVIJkTKgx-31">
          <mxGeometry relative="1" as="geometry" />
        </mxCell>
        <mxCell id="_l4OYy0YUP2VVIJkTKgx-29" value="&lt;span style=&quot;font-size: 16px;&quot;&gt;CBS&lt;/span&gt;" style="rounded=1;whiteSpace=wrap;html=1;fillColor=#dae8fc;strokeColor=#6c8ebf;" vertex="1" parent="1">
          <mxGeometry x="150" y="420" width="120" height="60" as="geometry" />
        </mxCell>
        <mxCell id="_l4OYy0YUP2VVIJkTKgx-35" style="edgeStyle=orthogonalEdgeStyle;rounded=0;orthogonalLoop=1;jettySize=auto;html=1;exitX=0.5;exitY=1;exitDx=0;exitDy=0;" edge="1" parent="1" source="_l4OYy0YUP2VVIJkTKgx-31" target="_l4OYy0YUP2VVIJkTKgx-33">
          <mxGeometry relative="1" as="geometry" />
        </mxCell>
        <mxCell id="_l4OYy0YUP2VVIJkTKgx-57" style="edgeStyle=orthogonalEdgeStyle;rounded=0;orthogonalLoop=1;jettySize=auto;html=1;exitX=1;exitY=0.5;exitDx=0;exitDy=0;entryX=0.5;entryY=0;entryDx=0;entryDy=0;" edge="1" parent="1" source="_l4OYy0YUP2VVIJkTKgx-31" target="_l4OYy0YUP2VVIJkTKgx-58">
          <mxGeometry relative="1" as="geometry">
            <mxPoint x="1060" y="740" as="targetPoint" />
          </mxGeometry>
        </mxCell>
        <mxCell id="_l4OYy0YUP2VVIJkTKgx-31" value="&lt;span style=&quot;font-size: 16px;&quot;&gt;C3*n&lt;/span&gt;" style="rounded=1;whiteSpace=wrap;html=1;fillColor=#dae8fc;strokeColor=#6c8ebf;" vertex="1" parent="1">
          <mxGeometry x="150" y="524.5" width="120" height="60" as="geometry" />
        </mxCell>
        <mxCell id="_l4OYy0YUP2VVIJkTKgx-36" style="edgeStyle=orthogonalEdgeStyle;rounded=0;orthogonalLoop=1;jettySize=auto;html=1;exitX=0.5;exitY=1;exitDx=0;exitDy=0;" edge="1" parent="1" source="_l4OYy0YUP2VVIJkTKgx-33" target="_l4OYy0YUP2VVIJkTKgx-34">
          <mxGeometry relative="1" as="geometry" />
        </mxCell>
        <mxCell id="_l4OYy0YUP2VVIJkTKgx-33" value="&lt;span style=&quot;font-size: 16px;&quot;&gt;CBS&lt;/span&gt;" style="rounded=1;whiteSpace=wrap;html=1;fillColor=#dae8fc;strokeColor=#6c8ebf;" vertex="1" parent="1">
          <mxGeometry x="150" y="630" width="120" height="60" as="geometry" />
        </mxCell>
        <mxCell id="_l4OYy0YUP2VVIJkTKgx-42" style="edgeStyle=orthogonalEdgeStyle;rounded=0;orthogonalLoop=1;jettySize=auto;html=1;exitX=0.5;exitY=1;exitDx=0;exitDy=0;" edge="1" parent="1" source="_l4OYy0YUP2VVIJkTKgx-34" target="_l4OYy0YUP2VVIJkTKgx-39">
          <mxGeometry relative="1" as="geometry" />
        </mxCell>
        <mxCell id="_l4OYy0YUP2VVIJkTKgx-47" style="edgeStyle=orthogonalEdgeStyle;rounded=0;orthogonalLoop=1;jettySize=auto;html=1;exitX=1;exitY=0.5;exitDx=0;exitDy=0;entryX=0.5;entryY=0;entryDx=0;entryDy=0;" edge="1" parent="1" source="_l4OYy0YUP2VVIJkTKgx-34" target="_l4OYy0YUP2VVIJkTKgx-48">
          <mxGeometry relative="1" as="geometry">
            <mxPoint x="620" y="820" as="targetPoint" />
          </mxGeometry>
        </mxCell>
        <mxCell id="_l4OYy0YUP2VVIJkTKgx-34" value="&lt;span style=&quot;font-size: 16px;&quot;&gt;C3*n&lt;/span&gt;" style="rounded=1;whiteSpace=wrap;html=1;fillColor=#dae8fc;strokeColor=#6c8ebf;" vertex="1" parent="1">
          <mxGeometry x="150" y="740" width="120" height="60" as="geometry" />
        </mxCell>
        <mxCell id="_l4OYy0YUP2VVIJkTKgx-45" style="edgeStyle=orthogonalEdgeStyle;rounded=0;orthogonalLoop=1;jettySize=auto;html=1;exitX=1;exitY=0.5;exitDx=0;exitDy=0;" edge="1" parent="1" source="_l4OYy0YUP2VVIJkTKgx-37" target="_l4OYy0YUP2VVIJkTKgx-40">
          <mxGeometry relative="1" as="geometry" />
        </mxCell>
        <mxCell id="_l4OYy0YUP2VVIJkTKgx-37" value="&lt;span style=&quot;font-size: 16px;&quot;&gt;SPPF&lt;/span&gt;" style="rounded=1;whiteSpace=wrap;html=1;fillColor=#dae8fc;strokeColor=#6c8ebf;" vertex="1" parent="1">
          <mxGeometry x="150" y="1070" width="120" height="60" as="geometry" />
        </mxCell>
        <mxCell id="_l4OYy0YUP2VVIJkTKgx-43" style="edgeStyle=orthogonalEdgeStyle;rounded=0;orthogonalLoop=1;jettySize=auto;html=1;exitX=0.5;exitY=1;exitDx=0;exitDy=0;" edge="1" parent="1" source="_l4OYy0YUP2VVIJkTKgx-39" target="_l4OYy0YUP2VVIJkTKgx-41">
          <mxGeometry relative="1" as="geometry" />
        </mxCell>
        <mxCell id="_l4OYy0YUP2VVIJkTKgx-39" value="&lt;span style=&quot;font-size: 16px;&quot;&gt;CBS&lt;/span&gt;" style="rounded=1;whiteSpace=wrap;html=1;fillColor=#dae8fc;strokeColor=#6c8ebf;" vertex="1" parent="1">
          <mxGeometry x="150" y="850" width="120" height="60" as="geometry" />
        </mxCell>
        <mxCell id="_l4OYy0YUP2VVIJkTKgx-74" style="edgeStyle=orthogonalEdgeStyle;rounded=0;orthogonalLoop=1;jettySize=auto;html=1;exitX=0.5;exitY=0;exitDx=0;exitDy=0;entryX=0.5;entryY=1;entryDx=0;entryDy=0;" edge="1" parent="1" source="_l4OYy0YUP2VVIJkTKgx-40" target="_l4OYy0YUP2VVIJkTKgx-16">
          <mxGeometry relative="1" as="geometry" />
        </mxCell>
        <mxCell id="_l4OYy0YUP2VVIJkTKgx-79" style="edgeStyle=orthogonalEdgeStyle;rounded=0;orthogonalLoop=1;jettySize=auto;html=1;exitX=1;exitY=0.5;exitDx=0;exitDy=0;entryX=0;entryY=0.5;entryDx=0;entryDy=0;" edge="1" parent="1" source="_l4OYy0YUP2VVIJkTKgx-40" target="_l4OYy0YUP2VVIJkTKgx-77">
          <mxGeometry relative="1" as="geometry" />
        </mxCell>
        <mxCell id="_l4OYy0YUP2VVIJkTKgx-40" value="&lt;span style=&quot;font-size: 16px;&quot;&gt;CBS&lt;/span&gt;" style="rounded=1;whiteSpace=wrap;html=1;fillColor=#dae8fc;strokeColor=#6c8ebf;" vertex="1" parent="1">
          <mxGeometry x="354" y="1070" width="120" height="60" as="geometry" />
        </mxCell>
        <mxCell id="_l4OYy0YUP2VVIJkTKgx-44" style="edgeStyle=orthogonalEdgeStyle;rounded=0;orthogonalLoop=1;jettySize=auto;html=1;exitX=0.5;exitY=1;exitDx=0;exitDy=0;entryX=0.5;entryY=0;entryDx=0;entryDy=0;" edge="1" parent="1" source="_l4OYy0YUP2VVIJkTKgx-41" target="_l4OYy0YUP2VVIJkTKgx-37">
          <mxGeometry relative="1" as="geometry" />
        </mxCell>
        <mxCell id="_l4OYy0YUP2VVIJkTKgx-41" value="&lt;span style=&quot;font-size: 16px;&quot;&gt;C3*n&lt;/span&gt;" style="rounded=1;whiteSpace=wrap;html=1;fillColor=#dae8fc;strokeColor=#6c8ebf;" vertex="1" parent="1">
          <mxGeometry x="150" y="960" width="120" height="60" as="geometry" />
        </mxCell>
        <mxCell id="_l4OYy0YUP2VVIJkTKgx-52" style="edgeStyle=orthogonalEdgeStyle;rounded=0;orthogonalLoop=1;jettySize=auto;html=1;exitX=1;exitY=0.5;exitDx=0;exitDy=0;" edge="1" parent="1" source="_l4OYy0YUP2VVIJkTKgx-48" target="_l4OYy0YUP2VVIJkTKgx-51">
          <mxGeometry relative="1" as="geometry" />
        </mxCell>
        <mxCell id="_l4OYy0YUP2VVIJkTKgx-48" value="&lt;span style=&quot;font-size: 16px;&quot;&gt;cat&lt;/span&gt;" style="rounded=1;whiteSpace=wrap;html=1;fillColor=#fff2cc;strokeColor=#d6b656;" vertex="1" parent="1">
          <mxGeometry x="354" y="850" width="120" height="60" as="geometry" />
        </mxCell>
        <mxCell id="_l4OYy0YUP2VVIJkTKgx-65" style="edgeStyle=orthogonalEdgeStyle;rounded=0;orthogonalLoop=1;jettySize=auto;html=1;exitX=1;exitY=0.5;exitDx=0;exitDy=0;entryX=0;entryY=0.5;entryDx=0;entryDy=0;" edge="1" parent="1" source="_l4OYy0YUP2VVIJkTKgx-50" target="_l4OYy0YUP2VVIJkTKgx-61">
          <mxGeometry relative="1" as="geometry" />
        </mxCell>
        <mxCell id="_l4OYy0YUP2VVIJkTKgx-85" style="edgeStyle=orthogonalEdgeStyle;rounded=0;orthogonalLoop=1;jettySize=auto;html=1;exitX=0.5;exitY=0;exitDx=0;exitDy=0;entryX=0.5;entryY=0;entryDx=0;entryDy=0;" edge="1" parent="1" source="_l4OYy0YUP2VVIJkTKgx-50" target="_l4OYy0YUP2VVIJkTKgx-21">
          <mxGeometry relative="1" as="geometry" />
        </mxCell>
        <mxCell id="_l4OYy0YUP2VVIJkTKgx-50" value="&lt;span style=&quot;font-size: 16px;&quot;&gt;C3*n&lt;/span&gt;" style="rounded=1;whiteSpace=wrap;html=1;fillColor=#dae8fc;strokeColor=#6c8ebf;" vertex="1" parent="1">
          <mxGeometry x="950" y="630" width="120" height="60" as="geometry" />
        </mxCell>
        <mxCell id="_l4OYy0YUP2VVIJkTKgx-54" style="edgeStyle=orthogonalEdgeStyle;rounded=0;orthogonalLoop=1;jettySize=auto;html=1;exitX=1;exitY=0.5;exitDx=0;exitDy=0;" edge="1" parent="1" source="_l4OYy0YUP2VVIJkTKgx-51" target="_l4OYy0YUP2VVIJkTKgx-53">
          <mxGeometry relative="1" as="geometry" />
        </mxCell>
        <mxCell id="_l4OYy0YUP2VVIJkTKgx-87" style="edgeStyle=orthogonalEdgeStyle;rounded=0;orthogonalLoop=1;jettySize=auto;html=1;exitX=0.5;exitY=0;exitDx=0;exitDy=0;entryX=0.5;entryY=0;entryDx=0;entryDy=0;" edge="1" parent="1" source="_l4OYy0YUP2VVIJkTKgx-51" target="_l4OYy0YUP2VVIJkTKgx-21">
          <mxGeometry relative="1" as="geometry" />
        </mxCell>
        <mxCell id="_l4OYy0YUP2VVIJkTKgx-51" value="&lt;span style=&quot;font-size: 16px;&quot;&gt;C3*n&lt;/span&gt;" style="rounded=1;whiteSpace=wrap;html=1;fillColor=#dae8fc;strokeColor=#6c8ebf;" vertex="1" parent="1">
          <mxGeometry x="560" y="850" width="120" height="60" as="geometry" />
        </mxCell>
        <mxCell id="_l4OYy0YUP2VVIJkTKgx-56" style="edgeStyle=orthogonalEdgeStyle;rounded=0;orthogonalLoop=1;jettySize=auto;html=1;exitX=0.5;exitY=0;exitDx=0;exitDy=0;entryX=0.5;entryY=1;entryDx=0;entryDy=0;" edge="1" parent="1" source="_l4OYy0YUP2VVIJkTKgx-53" target="_l4OYy0YUP2VVIJkTKgx-55">
          <mxGeometry relative="1" as="geometry" />
        </mxCell>
        <mxCell id="_l4OYy0YUP2VVIJkTKgx-70" style="edgeStyle=orthogonalEdgeStyle;rounded=0;orthogonalLoop=1;jettySize=auto;html=1;exitX=1;exitY=0.5;exitDx=0;exitDy=0;" edge="1" parent="1" source="_l4OYy0YUP2VVIJkTKgx-53" target="_l4OYy0YUP2VVIJkTKgx-62">
          <mxGeometry relative="1" as="geometry" />
        </mxCell>
        <mxCell id="_l4OYy0YUP2VVIJkTKgx-53" value="&lt;span style=&quot;font-size: 16px;&quot;&gt;CBS&lt;/span&gt;" style="rounded=1;whiteSpace=wrap;html=1;fillColor=#dae8fc;strokeColor=#6c8ebf;" vertex="1" parent="1">
          <mxGeometry x="750" y="850" width="120" height="60" as="geometry" />
        </mxCell>
        <mxCell id="_l4OYy0YUP2VVIJkTKgx-59" style="edgeStyle=orthogonalEdgeStyle;rounded=0;orthogonalLoop=1;jettySize=auto;html=1;exitX=0.5;exitY=0;exitDx=0;exitDy=0;entryX=0.5;entryY=1;entryDx=0;entryDy=0;" edge="1" parent="1" source="_l4OYy0YUP2VVIJkTKgx-55" target="_l4OYy0YUP2VVIJkTKgx-58">
          <mxGeometry relative="1" as="geometry" />
        </mxCell>
        <mxCell id="_l4OYy0YUP2VVIJkTKgx-55" value="&lt;span style=&quot;font-size: 16px;&quot;&gt;上采样&lt;/span&gt;" style="rounded=1;whiteSpace=wrap;html=1;fillColor=#fff2cc;strokeColor=#d6b656;" vertex="1" parent="1">
          <mxGeometry x="750" y="740" width="120" height="60" as="geometry" />
        </mxCell>
        <mxCell id="_l4OYy0YUP2VVIJkTKgx-69" style="edgeStyle=orthogonalEdgeStyle;rounded=0;orthogonalLoop=1;jettySize=auto;html=1;exitX=1;exitY=0.5;exitDx=0;exitDy=0;" edge="1" parent="1" source="_l4OYy0YUP2VVIJkTKgx-58" target="_l4OYy0YUP2VVIJkTKgx-50">
          <mxGeometry relative="1" as="geometry" />
        </mxCell>
        <mxCell id="_l4OYy0YUP2VVIJkTKgx-58" value="&lt;span style=&quot;font-size: 16px;&quot;&gt;cat&lt;/span&gt;" style="rounded=1;whiteSpace=wrap;html=1;fillColor=#fff2cc;strokeColor=#d6b656;" vertex="1" parent="1">
          <mxGeometry x="750" y="630" width="120" height="60" as="geometry" />
        </mxCell>
        <mxCell id="_l4OYy0YUP2VVIJkTKgx-64" style="edgeStyle=orthogonalEdgeStyle;rounded=0;orthogonalLoop=1;jettySize=auto;html=1;exitX=0.5;exitY=1;exitDx=0;exitDy=0;entryX=0.5;entryY=0;entryDx=0;entryDy=0;" edge="1" parent="1" source="_l4OYy0YUP2VVIJkTKgx-61" target="_l4OYy0YUP2VVIJkTKgx-62">
          <mxGeometry relative="1" as="geometry" />
        </mxCell>
        <mxCell id="_l4OYy0YUP2VVIJkTKgx-61" value="&lt;span style=&quot;font-size: 16px;&quot;&gt;CBS&lt;/span&gt;" style="rounded=1;whiteSpace=wrap;html=1;fillColor=#dae8fc;strokeColor=#6c8ebf;" vertex="1" parent="1">
          <mxGeometry x="1150" y="630" width="120" height="60" as="geometry" />
        </mxCell>
        <mxCell id="_l4OYy0YUP2VVIJkTKgx-68" style="edgeStyle=orthogonalEdgeStyle;rounded=0;orthogonalLoop=1;jettySize=auto;html=1;exitX=1;exitY=0.5;exitDx=0;exitDy=0;" edge="1" parent="1" source="_l4OYy0YUP2VVIJkTKgx-62" target="_l4OYy0YUP2VVIJkTKgx-66">
          <mxGeometry relative="1" as="geometry" />
        </mxCell>
        <mxCell id="_l4OYy0YUP2VVIJkTKgx-62" value="&lt;span style=&quot;font-size: 16px;&quot;&gt;cat&lt;/span&gt;" style="rounded=1;whiteSpace=wrap;html=1;fillColor=#fff2cc;strokeColor=#d6b656;" vertex="1" parent="1">
          <mxGeometry x="1150" y="850" width="120" height="60" as="geometry" />
        </mxCell>
        <mxCell id="_l4OYy0YUP2VVIJkTKgx-72" style="edgeStyle=orthogonalEdgeStyle;rounded=0;orthogonalLoop=1;jettySize=auto;html=1;exitX=1;exitY=0.5;exitDx=0;exitDy=0;entryX=0;entryY=0.5;entryDx=0;entryDy=0;" edge="1" parent="1" source="_l4OYy0YUP2VVIJkTKgx-66" target="_l4OYy0YUP2VVIJkTKgx-71">
          <mxGeometry relative="1" as="geometry" />
        </mxCell>
        <mxCell id="_l4OYy0YUP2VVIJkTKgx-66" value="&lt;span style=&quot;font-size: 16px;&quot;&gt;C3*n&lt;/span&gt;" style="rounded=1;whiteSpace=wrap;html=1;fillColor=#dae8fc;strokeColor=#6c8ebf;" vertex="1" parent="1">
          <mxGeometry x="1350" y="850" width="120" height="60" as="geometry" />
        </mxCell>
        <mxCell id="_l4OYy0YUP2VVIJkTKgx-78" style="edgeStyle=orthogonalEdgeStyle;rounded=0;orthogonalLoop=1;jettySize=auto;html=1;exitX=0.5;exitY=1;exitDx=0;exitDy=0;" edge="1" parent="1" source="_l4OYy0YUP2VVIJkTKgx-71" target="_l4OYy0YUP2VVIJkTKgx-77">
          <mxGeometry relative="1" as="geometry" />
        </mxCell>
        <mxCell id="_l4OYy0YUP2VVIJkTKgx-71" value="&lt;span style=&quot;font-size: 16px;&quot;&gt;CBS&lt;/span&gt;" style="rounded=1;whiteSpace=wrap;html=1;fillColor=#dae8fc;strokeColor=#6c8ebf;" vertex="1" parent="1">
          <mxGeometry x="1550" y="850" width="120" height="60" as="geometry" />
        </mxCell>
        <mxCell id="_l4OYy0YUP2VVIJkTKgx-81" style="edgeStyle=orthogonalEdgeStyle;rounded=0;orthogonalLoop=1;jettySize=auto;html=1;exitX=1;exitY=0.5;exitDx=0;exitDy=0;entryX=0;entryY=0.5;entryDx=0;entryDy=0;" edge="1" parent="1" source="_l4OYy0YUP2VVIJkTKgx-77" target="_l4OYy0YUP2VVIJkTKgx-80">
          <mxGeometry relative="1" as="geometry" />
        </mxCell>
        <mxCell id="_l4OYy0YUP2VVIJkTKgx-77" value="&lt;span style=&quot;font-size: 16px;&quot;&gt;cat&lt;/span&gt;" style="rounded=1;whiteSpace=wrap;html=1;fillColor=#fff2cc;strokeColor=#d6b656;" vertex="1" parent="1">
          <mxGeometry x="1550" y="1070" width="120" height="60" as="geometry" />
        </mxCell>
        <mxCell id="_l4OYy0YUP2VVIJkTKgx-88" style="edgeStyle=orthogonalEdgeStyle;rounded=0;orthogonalLoop=1;jettySize=auto;html=1;exitX=0.5;exitY=0;exitDx=0;exitDy=0;entryX=0.5;entryY=1;entryDx=0;entryDy=0;" edge="1" parent="1" source="_l4OYy0YUP2VVIJkTKgx-80" target="_l4OYy0YUP2VVIJkTKgx-21">
          <mxGeometry relative="1" as="geometry" />
        </mxCell>
        <mxCell id="_l4OYy0YUP2VVIJkTKgx-80" value="&lt;span style=&quot;font-size: 16px;&quot;&gt;C3*n&lt;/span&gt;" style="rounded=1;whiteSpace=wrap;html=1;fillColor=#dae8fc;strokeColor=#6c8ebf;" vertex="1" parent="1">
          <mxGeometry x="1740" y="1070" width="120" height="60" as="geometry" />
        </mxCell>
      </root>
    </mxGraphModel>
  </diagram>
</mxfile>
